 <svg  version="1.0" xmlns="http://www.w3.org/2000/svg"  width="300.000000pt" height="304.000000pt" viewBox="0 0 300.000000 304.000000"  preserveAspectRatio="xMidYMid meet">  <g transform="translate(0.000000,304.000000) scale(0.100000,-0.100000)" fill="#000000" stroke="none"> <path d="M900 2530 c-148 -19 -307 -66 -368 -110 -83 -60 -43 -121 115 -173 146 -48 248 -61 483 -61 291 0 465 31 590 106 50 30 55 37 55 68 0 28 -6 39 -40 62 -48 33 -165 72 -283 94 -103 19 -439 27 -552 14z m540 -54 c169 -32 290 -80 290 -116 0 -65 -321 -140 -601 -140 -266 0 -589 76 -589 139 0 48 180 106 420 135 75 9 398 -3 480 -18z"/> <path d="M488 2068 c4 -194 4 -194 82 -233 248 -124 814 -131 1096 -14 114 47 112 44 116 247 2 94 2 172 0 172 -2 0 -22 -11 -45 -24 -246 -142 -928 -146 -1192 -7 -27 14 -52 27 -55 28 -3 2 -4 -75 -2 -169z m109 74 l42 -17 -55 -48 -54 -48 0 65 c0 74 1 75 67 48z m1141 -109 l-3 -127 -34 -23 c-50 -34 -173 -70 -302 -89 -157 -23 -481 -15 -618 15 -52 11 -98 24 -103 29 -6 6 6 17 29 29 55 28 86 78 80 127 -3 22 -15 52 -27 68 -12 16 -20 31 -18 33 2 2 46 -3 98 -12 61 -9 166 -15 290 -15 223 -1 363 17 499 62 47 15 92 28 99 29 10 1 12 -28 10 -126z m-1003 4 c63 -91 -68 -191 -139 -106 -14 17 -26 41 -26 54 0 30 44 83 73 87 32 5 75 -11 92 -35z m-173 -129 l23 -33 -25 16 c-14 9 -26 24 -28 33 -5 24 4 19 30 -16z"/> <path d="M488 1623 c3 -169 4 -179 25 -197 91 -77 364 -136 633 -136 113 0 122 8 91 80 -13 31 -18 57 -13 75 4 15 40 60 81 101 82 82 109 91 179 58 32 -16 36 -16 78 5 24 11 50 21 57 21 6 0 20 19 30 43 23 54 43 70 94 76 35 5 43 10 45 30 2 13 0 22 -5 20 -4 -2 -30 -16 -58 -30 -242 -128 -782 -144 -1108 -34 -39 14 -84 34 -99 45 -15 11 -28 20 -30 20 -2 0 -2 -80 0 -177z m125 69 c46 -18 53 -32 15 -32 -10 0 -36 -19 -58 -41 l-40 -41 0 71 c0 81 -7 77 83 43z m482 -68 c115 -3 211 -7 214 -9 2 -3 -21 -31 -51 -63 -65 -68 -84 -114 -69 -168 6 -20 8 -41 5 -46 -20 -32 -514 27 -514 61 0 5 13 14 29 20 36 15 71 62 78 105 5 34 -13 82 -41 105 -29 24 -7 28 66 14 40 -7 167 -16 283 -19z m-367 -31 c50 -55 10 -143 -66 -143 -93 0 -123 129 -38 166 39 16 75 9 104 -23z"/> <path d="M1725 1668 c-3 -7 -11 -30 -18 -52 -12 -35 -19 -41 -75 -61 -34 -12 -72 -29 -84 -37 -21 -14 -27 -13 -76 10 l-52 26 -60 -59 c-33 -33 -60 -65 -60 -71 0 -7 9 -33 20 -59 l20 -47 -20 -37 c-12 -20 -27 -56 -34 -81 -12 -41 -17 -46 -67 -65 l-54 -21 0 -89 0 -89 52 -20 c49 -19 53 -24 68 -71 9 -27 25 -65 35 -82 19 -32 19 -34 0 -79 -11 -25 -20 -51 -20 -58 0 -6 27 -38 60 -71 l59 -59 51 24 50 23 55 -27 c30 -14 68 -29 84 -32 24 -5 32 -15 46 -53 10 -25 21 -50 26 -55 10 -11 169 -11 179 1 5 4 15 28 23 53 10 29 22 46 33 48 11 2 49 17 87 34 l67 31 51 -23 50 -24 63 63 64 63 -25 54 -25 54 20 33 c11 17 28 55 37 82 15 47 20 52 68 71 l52 20 0 89 0 89 -54 21 c-48 18 -55 24 -66 60 -6 22 -21 59 -33 82 l-22 42 24 54 24 55 -64 63 -64 63 -52 -26 c-49 -23 -55 -24 -76 -10 -12 8 -50 25 -84 37 -60 22 -63 24 -78 71 l-17 49 -92 3 c-67 2 -93 -1 -96 -10z m165 -58 c13 -31 73 -90 92 -90 6 0 37 -12 70 -27 59 -26 60 -26 111 -10 l52 17 38 -38 c31 -30 37 -42 33 -64 -3 -16 -9 -42 -12 -58 -9 -43 51 -185 89 -214 66 -49 77 -64 77 -103 0 -46 -6 -56 -45 -76 -44 -22 -59 -43 -95 -130 -23 -55 -30 -86 -26 -107 3 -17 9 -43 12 -58 4 -22 0 -35 -18 -53 -49 -51 -53 -52 -107 -34 l-50 16 -70 -30 c-38 -17 -73 -31 -78 -31 -14 0 -48 -40 -67 -77 -16 -32 -19 -33 -76 -33 -59 0 -60 0 -79 38 -26 51 -38 59 -134 99 -81 33 -82 33 -129 17 -54 -18 -73 -12 -111 38 -24 31 -25 33 -10 70 18 45 14 70 -22 158 -26 65 -72 120 -100 120 -20 0 -35 32 -35 75 0 37 12 53 77 101 18 14 40 50 62 105 32 77 33 86 23 126 -7 24 -12 50 -12 59 0 21 69 87 85 80 77 -29 93 -30 153 -2 33 14 64 26 70 26 20 0 73 52 87 86 14 33 15 34 73 34 57 0 60 -1 72 -30z"/> <path d="M1723 1425 c-190 -51 -313 -211 -313 -405 0 -179 125 -343 299 -394 192 -56 394 41 484 232 29 61 32 75 32 167 0 92 -3 106 -32 167 -57 121 -151 199 -278 233 -72 18 -123 18 -192 0z m253 -64 c77 -36 143 -101 181 -179 25 -51 28 -68 28 -157 0 -82 -4 -109 -22 -148 -33 -70 -79 -125 -140 -163 -189 -122 -437 -55 -535 144 -31 62 -33 74 -33 167 0 90 3 106 29 159 49 100 146 179 253 206 66 16 168 4 239 -29z"/> <path d="M1751 1206 c-10 -12 -4 -45 29 -173 22 -87 45 -168 50 -180 11 -27 55 -31 64 -6 6 14 -40 206 -78 328 -14 43 -43 58 -65 31z"/> <path d="M1601 1113 c-51 -43 -81 -75 -81 -88 0 -21 149 -155 173 -155 18 0 37 21 37 40 0 8 -27 37 -60 63 -33 27 -60 50 -60 51 0 2 25 23 55 47 60 47 74 72 55 94 -20 24 -35 18 -119 -52z"/> <path d="M1922 1168 c-23 -23 -12 -46 48 -95 l60 -48 -22 -18 c-55 -45 -98 -89 -98 -100 0 -17 20 -37 37 -37 24 0 173 134 173 155 0 13 -29 43 -80 85 -86 70 -99 77 -118 58z"/> <path d="M488 1178 l3 -173 28 -26 c56 -52 226 -102 401 -118 196 -18 260 -20 260 -10 0 5 -9 9 -20 9 -12 0 -32 12 -45 26 -23 25 -25 34 -25 139 0 108 1 112 28 137 15 15 39 30 55 33 62 16 32 25 -84 25 -204 0 -422 40 -543 101 -33 16 -60 29 -60 29 -1 0 0 -78 2 -172z m115 74 c54 -21 60 -34 19 -44 -15 -4 -42 -24 -59 -45 l-33 -38 0 73 c0 81 0 81 73 54z m249 -57 c57 -8 125 -16 153 -17 l49 -3 -2 -139 c-1 -76 -4 -141 -6 -143 -7 -8 -215 17 -288 33 -45 10 -68 20 -68 30 0 8 6 14 14 14 24 0 75 59 82 95 8 43 -1 68 -38 111 -35 40 -38 40 104 19z m-131 -44 c79 -80 -25 -201 -114 -131 -66 52 -26 158 61 160 13 0 37 -13 53 -29z"/> </g> </svg> 