 <svg  version="1.0" xmlns="http://www.w3.org/2000/svg"  width="400.000000pt" height="378.000000pt" viewBox="0 0 400.000000 378.000000"  preserveAspectRatio="xMidYMid meet">  <g transform="translate(0.000000,378.000000) scale(0.050000,-0.050000)" fill="#ffffff" stroke="none"> <path d="M3105 6287 c-18 -7 -25 -67 -25 -199 l0 -188 -817 0 c-766 0 -819 -2 -850 -37 -43 -47 -51 -1417 -9 -1459 35 -35 2097 -35 2132 0 18 18 24 176 24 590 l0 566 216 0 c141 0 224 8 240 24 31 31 33 621 3 677 -20 38 -828 60 -914 26z m266 -98 c-20 -20 -31 -67 -31 -129 0 -80 -7 -100 -40 -110 -22 -7 -40 -22 -40 -33 0 -12 18 -25 40 -31 33 -9 40 -27 40 -104 0 -52 11 -105 24 -118 41 -41 6 -44 -65 -6 -85 46 -126 164 -108 312 18 150 27 169 96 211 79 49 130 53 84 8z m443 -8 c142 -87 131 -447 -17 -522 -84 -44 -120 -43 -67 1 19 16 30 59 30 121 0 79 7 99 40 109 22 7 40 20 40 30 0 10 -18 23 -40 30 -32 10 -40 30 -40 105 0 57 -12 106 -33 128 -46 51 2 50 87 -2z m-149 -21 c53 -26 75 -125 57 -260 -23 -179 -30 -201 -70 -225 -43 -28 -130 -30 -205 -6 -32 11 -45 36 -54 108 -6 51 -13 107 -15 123 -35 247 86 357 287 260z m-581 -445 l6 -145 228 -6 227 -5 -12 -92 c-7 -51 -13 -307 -13 -570 l0 -477 -1045 5 -1045 5 -5 690 c-3 379 -1 701 4 715 8 19 190 25 829 25 l820 0 6 -145z"/> <path d="M1508 5772 c-16 -42 7 -72 55 -72 30 0 38 11 33 45 -7 52 -71 72 -88 27z"/> <path d="M1712 5768 c-16 -42 2 -68 47 -68 45 0 66 47 35 78 -31 31 -68 27 -82 -10z"/> <path d="M1934 5787 c-34 -34 -14 -90 31 -83 29 4 45 20 45 46 0 39 -49 64 -76 37z"/> <path d="M1520 5560 c0 -13 127 -20 341 -20 223 0 337 7 329 20 -7 12 -144 20 -341 20 -206 0 -329 -7 -329 -20z"/> <path d="M2240 5560 c0 -12 80 -20 200 -20 120 0 200 8 200 20 0 12 -80 20 -200 20 -120 0 -200 -8 -200 -20z"/> <path d="M2730 5560 c-8 -13 36 -20 119 -20 74 0 131 9 131 20 0 11 -53 20 -119 20 -65 0 -124 -9 -131 -20z"/> <path d="M1700 5360 c0 -12 63 -20 150 -20 87 0 150 8 150 20 0 12 -63 20 -150 20 -87 0 -150 -8 -150 -20z"/> <path d="M2100 5360 c0 -13 237 -20 670 -20 433 0 670 7 670 20 0 13 -237 20 -670 20 -433 0 -670 -7 -670 -20z"/> <path d="M1714 5187 c-40 -40 19 -47 378 -47 304 0 389 6 383 25 -9 27 -735 48 -761 22z"/> <path d="M2570 5181 c-7 -12 0 -26 16 -32 46 -18 244 -1 244 21 0 27 -243 37 -260 11z"/> <path d="M2920 5170 c0 -27 35 -30 255 -26 335 8 331 44 -5 52 -216 4 -250 1 -250 -26z"/> <path d="M1534 4987 c-8 -7 -14 -21 -14 -31 0 -24 659 -11 665 14 6 23 -629 40 -651 17z"/> <path d="M2254 4987 c-37 -37 2 -47 188 -47 152 0 199 6 193 25 -9 27 -356 48 -381 22z"/> <path d="M2735 4988 c-31 -31 14 -48 128 -48 87 0 118 7 112 25 -9 27 -217 47 -240 23z"/> <path d="M1700 4780 c0 -13 243 -20 690 -20 447 0 690 7 690 20 0 13 -243 20 -690 20 -447 0 -690 -7 -690 -20z"/> <path d="M3160 4780 c0 -11 60 -20 140 -20 80 0 140 9 140 20 0 11 -60 20 -140 20 -80 0 -140 -9 -140 -20z"/> <path d="M1714 4608 c-35 -36 29 -48 259 -48 191 0 248 6 242 25 -9 27 -475 48 -501 23z"/> <path d="M2320 4591 c0 -24 24 -31 112 -31 147 0 140 47 -9 56 -82 5 -103 0 -103 -25z"/> <path d="M2654 4607 c-41 -41 21 -47 381 -42 251 3 393 12 390 25 -6 23 -749 39 -771 17z"/> <path d="M4760 5870 c-27 -33 -19 -418 9 -445 8 -8 57 32 108 89 l93 103 150 -5 c130 -4 162 2 240 46 l90 52 565 6 c479 5 570 2 595 -23 36 -37 46 -1493 10 -1493 -11 0 -20 -12 -20 -27 0 -48 -779 -57 -911 -11 -99 35 -494 95 -699 106 -57 3 -114 12 -127 20 -15 10 -23 -5 -23 -45 0 -92 -124 -101 -180 -14 l-39 61 51 47 c28 26 45 53 38 59 -7 7 -18 3 -26 -9 -45 -69 -97 -66 -167 9 -75 79 -146 236 -115 255 41 26 18 73 -30 61 -28 -7 -56 -1 -70 15 -30 37 -8 53 75 53 78 0 66 32 -16 43 -47 7 -45 12 53 110 119 118 185 125 237 25 16 -31 47 -66 68 -77 21 -12 41 -46 45 -76 5 -43 16 -54 49 -51 92 10 119 -126 32 -164 -45 -20 -55 -67 -28 -135 37 -95 243 425 243 615 0 208 -87 296 -325 332 -130 19 -157 18 -200 -10 -41 -28 -64 -29 -147 -10 -185 42 -363 -56 -409 -225 -45 -169 82 -397 222 -397 49 0 54 -10 86 -159 38 -173 97 -268 183 -289 42 -11 50 -24 50 -89 l0 -77 -215 -55 c-365 -93 -533 -194 -627 -376 l-39 -75 -1049 0 -1049 0 10 -55 c9 -52 149 -1691 149 -1748 0 -22 88 -26 473 -20 l473 7 -13 -95 c-7 -52 -13 -107 -13 -122 0 -21 -57 -27 -275 -27 l-275 -1 -40 -61 -40 -62 -465 3 -465 3 0 -81 0 -81 2880 0 2880 0 0 80 0 80 -2065 -1 c-2573 0 -2697 1 -2635 21 28 9 143 17 256 18 362 4 542 180 348 342 l-65 54 24 193 23 193 206 0 205 0 10 -55 c6 -30 17 -117 24 -194 7 -76 21 -157 31 -180 13 -28 15 -3 8 79 -7 66 -17 176 -24 245 l-11 125 -236 0 c-270 0 -246 21 -270 -235 -15 -155 -18 -159 -78 -114 -30 22 -102 29 -311 29 -338 0 -372 12 -399 150 -22 109 -77 730 -95 1075 l-12 215 83 0 c46 0 83 9 83 20 0 13 296 20 847 20 703 0 863 5 933 30 131 46 452 42 478 -7 11 -20 34 -247 51 -505 37 -538 62 -766 102 -910 59 -209 37 -235 -184 -217 -86 6 -206 27 -265 44 -102 30 -114 30 -210 -5 -56 -21 -156 -44 -222 -51 l-120 -13 132 -3 c156 -4 171 -13 106 -70 -165 -142 -41 -277 224 -244 109 14 151 51 58 51 -27 0 -50 -11 -50 -25 -1 -18 -6 -17 -18 3 -11 17 -38 24 -70 18 -29 -6 -52 -3 -52 5 0 9 -23 19 -50 23 -47 6 -41 14 81 123 137 122 183 137 111 36 -69 -96 -17 -176 73 -112 50 35 95 149 59 149 -15 0 -12 8 6 20 17 11 132 20 257 20 l226 0 -11 145 c-6 80 -25 339 -42 575 -17 237 -39 552 -50 700 -11 149 -20 299 -20 335 l0 65 -280 0 c-154 0 -280 7 -280 15 1 38 272 169 487 235 204 63 241 81 270 132 35 61 53 71 73 38 36 -58 201 -16 241 62 16 31 40 53 54 48 14 -4 178 -27 365 -51 351 -44 482 -77 573 -141 66 -47 948 -59 993 -14 35 35 35 1877 0 1912 -40 40 -2003 34 -2036 -6z m190 -81 c0 -21 -16 -41 -35 -45 -35 -7 -51 54 -21 83 23 24 56 1 56 -38z m186 4 c8 -40 -50 -67 -80 -37 -16 16 -15 31 4 54 31 37 67 30 76 -17z m158 25 c28 -28 12 -78 -25 -78 -35 0 -55 35 -41 71 13 35 36 37 66 7z m-422 -666 c6 -15 8 -62 4 -105 l-6 -76 -85 77 c-47 42 -85 89 -85 104 0 39 157 38 172 0z m-512 -26 c0 -30 -89 -106 -124 -106 -47 0 -68 52 -36 90 24 29 160 43 160 16z"/> <path d="M5828 5296 c-32 -25 -73 -61 -90 -80 -46 -51 -82 -45 -148 24 -137 143 -374 -47 -439 -352 -39 -183 264 -486 454 -455 38 6 87 2 109 -10 32 -17 54 -11 112 28 85 58 109 60 157 17 124 -113 537 193 537 398 0 195 -291 483 -437 432 -46 -16 -73 -14 -120 11 -76 39 -67 39 -135 -13z m100 -138 c-4 -128 -153 -618 -188 -618 -40 0 -13 142 111 576 31 109 81 135 77 42z m-393 8 c3 -11 -44 -83 -106 -158 l-113 -137 127 -115 c70 -63 134 -115 142 -115 24 -1 17 -81 -7 -81 -20 0 -310 245 -341 288 -16 23 243 355 270 346 11 -3 24 -16 28 -28z m734 -138 c114 -142 132 -175 109 -196 -189 -167 -317 -272 -336 -272 -58 0 -6 81 121 187 157 132 157 101 -2 303 -81 104 -88 140 -29 150 1 0 63 -77 137 -172z"/> <path d="M4560 4802 c0 -10 35 -21 79 -25 61 -6 74 -2 57 18 -24 28 -136 35 -136 7z"/> <path d="M4580 4691 c0 -41 41 -61 61 -30 9 15 12 34 7 43 -17 27 -68 18 -68 -13z"/> <path d="M4473 4635 c-24 -86 -15 -115 32 -113 32 2 35 5 11 12 -26 6 -31 24 -22 77 13 77 -3 94 -21 24z"/> <path d="M4542 4496 c-61 -17 -65 -22 -37 -49 35 -35 105 -22 122 23 16 40 -6 47 -85 26z"/> <path d="M5812 3888 c-21 -54 -14 -77 60 -199 150 -247 608 -1076 608 -1100 0 -15 -90 -55 -215 -95 -298 -97 -301 -98 -317 -47 -27 84 -172 257 -240 285 l-68 29 0 409 c0 260 -7 410 -20 410 -13 0 -20 -153 -20 -419 0 -405 -1 -420 -42 -442 -98 -53 -136 -345 -58 -445 38 -48 38 -52 5 -62 -62 -19 -901 -152 -959 -152 -86 -1 -121 -30 -70 -58 63 -33 147 -28 587 40 363 57 414 60 509 38 77 -19 133 -20 206 -6 61 12 103 13 107 2 11 -34 113 64 137 133 27 74 29 75 258 111 175 28 210 37 195 51 -5 6 -97 -3 -202 -20 -234 -38 -223 -38 -193 -1 14 16 70 43 126 60 194 58 274 31 305 -100 8 -33 31 -93 52 -134 22 -45 37 -117 37 -183 0 -151 -30 -161 -421 -149 -164 6 -299 2 -299 -7 0 -9 -59 -17 -131 -17 -73 0 -163 -14 -205 -31 -51 -22 -194 -38 -454 -52 -345 -18 -490 -40 -490 -74 0 -7 178 -10 395 -7 406 7 535 -3 514 -38 -17 -27 7 -118 30 -118 10 0 21 34 25 75 l6 75 442 -7 c854 -14 965 96 672 672 -136 267 -141 285 -87 285 60 0 63 20 16 97 -25 40 -171 298 -324 573 -324 583 -435 727 -477 618z m-152 -1214 c0 -13 28 -93 61 -177 l62 -154 62 22 c55 19 66 16 101 -27 l39 -48 -128 -23 c-70 -13 -158 -28 -197 -35 l-70 -11 6 225 c3 123 10 236 15 250 10 31 49 13 49 -22z"/> <path d="M3984 1683 c-17 -49 -16 -59 6 -50 36 14 56 69 33 92 -11 11 -26 -6 -39 -42z"/> <path d="M4444 1719 c12 -36 90 -85 103 -64 6 10 -17 34 -51 54 -41 24 -58 28 -52 10z"/> <path d="M4420 1541 c0 -10 50 -18 110 -18 61 0 110 8 110 18 0 11 -49 19 -110 19 -60 0 -110 -8 -110 -19z"/> </g> </svg> 