<?xml version="1.0" standalone="no"?>
<!DOCTYPE svg PUBLIC "-//W3C//DTD SVG 20010904//EN"
 "http://www.w3.org/TR/2001/REC-SVG-20010904/DTD/svg10.dtd">
<svg version="1.0" xmlns="http://www.w3.org/2000/svg"
 width="300.000000pt" height="286.000000pt" viewBox="0 0 300.000000 286.000000"
 preserveAspectRatio="xMidYMid meet">
<metadata>
Created by potrace 1.10, written by Peter Selinger 2001-2011
</metadata>
<g transform="translate(0.000000,286.000000) scale(0.100000,-0.100000)"
fill="#000000" stroke="none">
<path d="M497 2516 c-47 -17 -71 -38 -91 -81 -14 -29 -16 -139 -16 -968 l0
-934 23 -34 c12 -18 38 -44 56 -56 l34 -23 941 2 941 3 33 23 c18 13 41 41 52
62 20 38 20 62 20 957 0 871 -1 920 -19 958 -22 48 -54 78 -100 94 -54 18
-1823 15 -1874 -3z m1897 -57 c51 -40 56 -63 56 -254 0 -171 0 -175 -20 -165
-13 7 -332 9 -1010 8 l-990 -3 0 182 0 182 34 35 33 36 935 0 c933 0 935 0
962 -21z m26 -1179 l0 -730 -29 -32 -29 -33 -926 0 -926 0 -27 28 -28 27 -3
735 -2 735 985 0 985 0 0 -730z"/>
<path d="M931 2374 c-35 -29 -37 -42 -16 -83 12 -25 12 -31 0 -47 -20 -26 -18
-47 6 -78 26 -33 67 -34 117 -2 101 64 102 138 5 199 -62 39 -77 41 -112 11z
m99 -50 c68 -49 68 -72 -5 -120 -31 -21 -61 -34 -70 -31 -26 11 -17 50 17 74
l31 22 -31 18 c-20 11 -32 26 -32 39 0 45 25 45 90 -2z"/>
<path d="M675 2374 c-109 -59 -117 -135 -22 -197 64 -42 84 -44 118 -11 30 29
37 62 17 82 -9 9 -9 20 1 48 12 33 11 39 -6 63 -24 31 -66 37 -108 15z m83
-44 c2 -19 -5 -29 -30 -44 l-33 -18 32 -16 c37 -17 48 -39 32 -58 -17 -21 -33
-17 -89 17 -66 41 -67 65 -2 113 55 41 86 43 90 6z"/>
<path d="M1420 2339 c-14 -5 -34 -23 -43 -39 -17 -28 -17 -32 -1 -59 23 -39
53 -51 122 -51 66 0 101 15 121 52 32 56 -31 109 -126 107 -26 0 -59 -5 -73
-10z m158 -45 c26 -18 27 -27 6 -48 -11 -12 -35 -16 -88 -16 -73 0 -96 10 -96
40 0 30 23 40 90 40 43 0 73 -5 88 -16z"/>
<path d="M1710 2333 c-48 -25 -60 -62 -31 -101 25 -36 64 -47 148 -40 47 4 60
10 80 34 30 37 29 47 -6 86 -25 28 -35 32 -92 35 -48 3 -73 -1 -99 -14z m161
-33 c21 -12 25 -40 7 -58 -7 -7 -41 -12 -83 -12 -42 0 -76 5 -83 12 -16 16
-15 55 1 61 23 10 138 7 158 -3z"/>
<path d="M2010 2338 c-13 -7 -31 -26 -40 -41 -13 -24 -13 -30 0 -54 22 -39 55
-53 127 -53 52 0 66 4 92 26 39 32 41 71 6 104 -30 28 -144 39 -185 18z m161
-38 c21 -12 25 -40 7 -58 -12 -12 -134 -17 -162 -6 -19 7 -22 60 -3 67 23 10
138 7 158 -3z"/>
<path d="M1503 1828 c-15 -19 -195 -657 -191 -676 2 -11 13 -17 28 -17 24 0
28 11 121 335 95 333 102 370 65 370 -8 0 -18 -6 -23 -12z"/>
<path d="M1083 1620 c-133 -111 -148 -131 -124 -168 13 -21 255 -221 267 -222
19 0 36 28 29 47 -3 10 -57 60 -120 112 l-114 94 27 21 c15 11 69 56 120 100
71 60 92 84 90 100 -6 45 -41 28 -175 -84z"/>
<path d="M1622 1718 c-7 -7 -12 -18 -12 -24 0 -7 54 -58 119 -112 l119 -100
-119 -101 c-65 -56 -119 -107 -119 -115 0 -18 27 -39 42 -33 7 3 71 53 141
112 167 140 167 130 -3 276 -69 59 -132 108 -140 108 -9 1 -21 -4 -28 -11z"/>
<path d="M780 945 c-6 -8 -10 -22 -8 -32 3 -17 37 -18 659 -21 708 -2 696 -3
669 47 -11 21 -14 21 -659 21 -555 0 -650 -2 -661 -15z"/>
<path d="M778 739 c-5 -4 -8 -17 -6 -30 l3 -24 656 -3 c548 -2 658 0 668 12
13 15 5 46 -13 46 -158 4 -1301 3 -1308 -1z"/>
</g>
</svg>
